Coordinates
version=1
nRows=38
nColumns=12
inDegrees=yes

Units are S.I. units (second, meters, Newtons, ...)
Angles are in degrees

endheader
time	SC_y	SC_z	SC_x	AC_y	AC_z	AC_x	GH_y	GH_z	GH_yy	EL_x	PS_y
       0.0              -30.09          26.55          17.43          61.24         -9.765         -15.02          63.71         -14.13          134.4          49.75          37.31
   0.02399              -30.09          26.54          17.43          61.24         -9.764         -15.02           63.7         -14.12          134.3          49.75          37.32
   0.04798              -30.09          26.54          17.43          61.24         -9.762         -15.01           63.7         -14.11          134.3          49.75          37.34
   0.07197               -30.1          26.54          17.43          61.24          -9.76         -15.01           63.7         -14.09          134.3          49.75          37.35
   0.09596               -30.1          26.53          17.43          61.23         -9.758         -15.01           63.7         -14.08          134.3          49.75          37.37
      0.12              -30.11          26.53          17.43          61.23         -9.756          -15.0           63.7         -14.06          134.2          49.75          37.38
    0.1439              -30.11          26.52          17.43          61.23         -9.753          -15.0           63.7         -14.04          134.2          49.75           37.4
    0.1679              -30.12          26.52          17.42          61.23         -9.751          -15.0           63.7         -14.02          134.2          49.75          37.42
    0.1919              -30.12          26.51          17.42          61.23         -9.748         -14.99           63.7          -14.0          134.1          49.75          37.45
    0.2159              -30.13          26.51          17.42          61.22         -9.745         -14.99           63.7         -13.98          134.1          49.75          37.47
    0.2399              -30.14           26.5          17.42          61.22         -9.742         -14.98           63.7         -13.96          134.1          49.75          37.49
    0.2639              -30.14          26.49          17.42          61.22         -9.739         -14.98          63.69         -13.93          134.0          49.75          37.52
    0.2879              -30.15          26.48          17.42          61.22         -9.735         -14.97          63.69         -13.91          134.0          49.75          37.55
    0.3119              -30.16          26.48          17.41          61.21         -9.731         -14.97          63.69         -13.88          133.9          49.75          37.58
    0.3359              -30.17          26.47          17.41          61.21         -9.727         -14.96          63.69         -13.85          133.9          49.75          37.61
    0.3599              -30.18          26.46          17.41          61.21         -9.723         -14.95          63.69         -13.81          133.8          49.75          37.65
    0.3838              -30.19          26.45           17.4           61.2         -9.718         -14.95          63.69         -13.78          133.7          49.75          37.69
    0.4078               -30.2          26.44           17.4           61.2         -9.712         -14.94          63.68         -13.74          133.7          49.75          37.73
    0.4318              -30.22          26.43           17.4          61.19         -9.707         -14.93          63.68         -13.69          133.6          49.75          37.78
    0.4558              -30.23          26.41          17.39          61.19           -9.7         -14.92          63.68         -13.64          133.5          49.76          37.83
    0.4798              -30.25           26.4          17.39          61.18         -9.693         -14.91          63.68         -13.59          133.4          49.76          37.89
    0.5038              -30.26          26.38          17.39          61.17         -9.685          -14.9          63.67         -13.53          133.3          49.76          37.95
    0.5278              -30.28          26.36          17.38          61.17         -9.677         -14.88          63.67         -13.47          133.2          49.76          38.02
    0.5518               -30.3          26.34          17.37          61.16         -9.667         -14.87          63.67          -13.4          133.1          49.76           38.1
    0.5758              -30.33          26.32          17.37          61.15         -9.657         -14.85          63.66         -13.32          132.9          49.76          38.18
    0.5998              -30.35           26.3          17.36          61.14         -9.645         -14.84          63.66         -13.23          132.8          49.76          38.28
    0.6238              -30.38          26.27          17.35          61.13         -9.632         -14.82          63.65         -13.13          132.6          49.76          38.38
    0.6477              -30.41          26.24          17.34          61.12         -9.617         -14.79          63.65         -13.02          132.4          49.76           38.5
    0.6717              -30.45          26.21          17.33           61.1           -9.6         -14.77          63.64         -12.89          132.2          49.76          38.64
    0.6957              -30.49          26.17          17.32          61.09         -9.581         -14.74          63.63         -12.75          131.9          49.77          38.79
    0.7197              -30.54          26.12          17.31          61.07         -9.559         -14.71          63.62         -12.59          131.6          49.77          38.97
    0.7437               -30.6          26.07           17.3          61.05         -9.535         -14.67          63.61          -12.4          131.3          49.77          39.17
    0.7677              -30.66          26.01          17.28          61.02         -9.506         -14.63           63.6         -12.19          130.9          49.77           39.4
    0.7917              -30.73          25.94          17.26           61.0         -9.472         -14.57          63.59         -11.93          130.5          49.78          39.67
    0.8157              -30.82          25.86          17.23          60.96         -9.433         -14.52          63.57         -11.64          130.0          49.78          39.99
    0.8397              -30.92          25.77          17.21          60.93         -9.387         -14.45          63.55         -11.29          129.3          49.79          40.36
    0.8637              -31.04          25.65          17.17          60.88         -9.332         -14.36          63.53         -10.88          128.6          49.79           40.8
    0.8877              -31.19          25.52          17.14          60.83         -9.267         -14.26           63.5         -10.39          127.7           49.8          41.33
